<svg width="26" height="26" viewBox="0 0 26 26" fill="none" xmlns="http://www.w3.org/2000/svg">
<path d="M22.3325 22.5322L15.9619 16.1616M18.0854 10.8528C18.0854 11.8288 17.8932 12.7953 17.5197 13.697C17.1461 14.5987 16.5987 15.4181 15.9085 16.1082C15.2184 16.7984 14.399 17.3459 13.4973 17.7194C12.5956 18.0929 11.6291 18.2851 10.6531 18.2851C9.67703 18.2851 8.71055 18.0929 7.80882 17.7194C6.90708 17.3459 6.08775 16.7984 5.39759 16.1082C4.70743 15.4181 4.15997 14.5987 3.78646 13.697C3.41295 12.7953 3.2207 11.8288 3.2207 10.8528C3.2207 8.88158 4.00375 6.99113 5.39759 5.5973C6.79143 4.20346 8.68187 3.42041 10.6531 3.42041C12.6242 3.42041 14.5147 4.20346 15.9085 5.5973C17.3024 6.99113 18.0854 8.88158 18.0854 10.8528Z" stroke="#4B5563" stroke-width="2.12353" stroke-linecap="round" stroke-linejoin="round"/>
</svg>
